<svg xmlns="http://www.w3.org/2000/svg" viewBox="0 0 120 140" fill="none">
  <g filter="url(#shadow)">
    <path d="M60 10c20 0 36 16 36 36v38c0 20-16 36-36 36S24 104 24 84V46c0-20 16-36 36-36Z" fill="#FBFBF7" stroke="#D9D4C9" stroke-width="3"/>
    <circle cx="44" cy="44" r="7" fill="#102449"/>
    <circle cx="76" cy="44" r="7" fill="#102449"/>
    <path d="M49 95c7 5 15 5 22 0" stroke="#277F56" stroke-width="5" stroke-linecap="round"/>
    <path d="M41 61h38v37H41V61Z" fill="#F7F2E8" stroke="#102449" stroke-width="4"/>
    <path d="M49 73h22M49 84h18" stroke="#102449" stroke-width="4" stroke-linecap="round"/>
    <path d="M78 78l12-12" stroke="#9A431E" stroke-width="7" stroke-linecap="round"/>
    <path d="M90 78L78 66" stroke="#9A431E" stroke-width="7" stroke-linecap="round"/>
    <path d="M44 25h32l-5 11H49l-5-11Z" fill="#143A6D"/>
  </g>
  <defs>
    <filter id="shadow" x="0" y="0" width="120" height="140" filterUnits="userSpaceOnUse" color-interpolation-filters="sRGB">
      <feDropShadow dx="0" dy="10" stdDeviation="6" flood-color="#102449" flood-opacity=".12"/>
    </filter>
  </defs>
</svg>
